<mxfile host="app.diagrams.net" modified="2024-03-11T05:01:49.874Z" agent="Mozilla/5.0 (Macintosh; Intel Mac OS X 10_15_7) AppleWebKit/537.36 (KHTML, like Gecko) Chrome/122.0.0.0 Safari/537.36" etag="wxcPEK5YP_41PLAhxmsN" version="24.0.1" type="device">
  <diagram id="C5RBs43oDa-KdzZeNtuy" name="Page-1">
    <mxGraphModel dx="1038" dy="527" grid="1" gridSize="10" guides="1" tooltips="1" connect="1" arrows="1" fold="1" page="1" pageScale="1" pageWidth="827" pageHeight="1169" math="0" shadow="0">
      <root>
        <mxCell id="WIyWlLk6GJQsqaUBKTNV-0" />
        <mxCell id="WIyWlLk6GJQsqaUBKTNV-1" parent="WIyWlLk6GJQsqaUBKTNV-0" />
        <mxCell id="WIyWlLk6GJQsqaUBKTNV-2" value="" style="rounded=0;html=1;jettySize=auto;orthogonalLoop=1;fontSize=11;endArrow=block;endFill=0;endSize=8;strokeWidth=1;shadow=0;labelBackgroundColor=none;edgeStyle=orthogonalEdgeStyle;" parent="WIyWlLk6GJQsqaUBKTNV-1" source="WIyWlLk6GJQsqaUBKTNV-3" edge="1">
          <mxGeometry relative="1" as="geometry">
            <mxPoint x="1340" y="100" as="targetPoint" />
          </mxGeometry>
        </mxCell>
        <mxCell id="WIyWlLk6GJQsqaUBKTNV-3" value="Start of Mobile App" style="rounded=1;whiteSpace=wrap;html=1;fontSize=12;glass=0;strokeWidth=1;shadow=0;" parent="WIyWlLk6GJQsqaUBKTNV-1" vertex="1">
          <mxGeometry x="1280" y="10" width="120" height="40" as="geometry" />
        </mxCell>
        <mxCell id="_Al638wbRoUYLRKJ5lqs-1" value="" style="edgeStyle=orthogonalEdgeStyle;rounded=0;orthogonalLoop=1;jettySize=auto;html=1;" edge="1" parent="WIyWlLk6GJQsqaUBKTNV-1" source="A8aQw49He0DX6QqjNbaR-1" target="_Al638wbRoUYLRKJ5lqs-0">
          <mxGeometry relative="1" as="geometry" />
        </mxCell>
        <mxCell id="A8aQw49He0DX6QqjNbaR-1" value="User enter Cities" style="rounded=1;whiteSpace=wrap;html=1;fontSize=12;glass=0;strokeWidth=1;shadow=0;" parent="WIyWlLk6GJQsqaUBKTNV-1" vertex="1">
          <mxGeometry x="1280" y="100" width="120" height="40" as="geometry" />
        </mxCell>
        <mxCell id="_Al638wbRoUYLRKJ5lqs-3" value="" style="edgeStyle=orthogonalEdgeStyle;rounded=0;orthogonalLoop=1;jettySize=auto;html=1;" edge="1" parent="WIyWlLk6GJQsqaUBKTNV-1" source="_Al638wbRoUYLRKJ5lqs-0" target="_Al638wbRoUYLRKJ5lqs-2">
          <mxGeometry relative="1" as="geometry" />
        </mxCell>
        <mxCell id="_Al638wbRoUYLRKJ5lqs-0" value="fetchDistances" style="rounded=1;whiteSpace=wrap;html=1;fontSize=12;glass=0;strokeWidth=1;shadow=0;" vertex="1" parent="WIyWlLk6GJQsqaUBKTNV-1">
          <mxGeometry x="1280" y="190" width="120" height="40" as="geometry" />
        </mxCell>
        <mxCell id="_Al638wbRoUYLRKJ5lqs-5" value="" style="edgeStyle=orthogonalEdgeStyle;rounded=0;orthogonalLoop=1;jettySize=auto;html=1;" edge="1" parent="WIyWlLk6GJQsqaUBKTNV-1" source="_Al638wbRoUYLRKJ5lqs-2" target="_Al638wbRoUYLRKJ5lqs-4">
          <mxGeometry relative="1" as="geometry" />
        </mxCell>
        <mxCell id="_Al638wbRoUYLRKJ5lqs-7" value="" style="edgeStyle=orthogonalEdgeStyle;rounded=0;orthogonalLoop=1;jettySize=auto;html=1;" edge="1" parent="WIyWlLk6GJQsqaUBKTNV-1" source="_Al638wbRoUYLRKJ5lqs-2" target="_Al638wbRoUYLRKJ5lqs-6">
          <mxGeometry relative="1" as="geometry" />
        </mxCell>
        <mxCell id="_Al638wbRoUYLRKJ5lqs-2" value="Cannot fetch" style="rhombus;whiteSpace=wrap;html=1;rounded=1;glass=0;strokeWidth=1;shadow=0;" vertex="1" parent="WIyWlLk6GJQsqaUBKTNV-1">
          <mxGeometry x="1300" y="270" width="80" height="80" as="geometry" />
        </mxCell>
        <mxCell id="_Al638wbRoUYLRKJ5lqs-4" value="Error output" style="whiteSpace=wrap;html=1;rounded=1;glass=0;strokeWidth=1;shadow=0;" vertex="1" parent="WIyWlLk6GJQsqaUBKTNV-1">
          <mxGeometry x="1440" y="280" width="120" height="60" as="geometry" />
        </mxCell>
        <mxCell id="_Al638wbRoUYLRKJ5lqs-6" value="Output shortest distances, and list of cities from start to finish" style="whiteSpace=wrap;html=1;rounded=1;glass=0;strokeWidth=1;shadow=0;" vertex="1" parent="WIyWlLk6GJQsqaUBKTNV-1">
          <mxGeometry x="1280" y="390" width="120" height="60" as="geometry" />
        </mxCell>
        <mxCell id="_Al638wbRoUYLRKJ5lqs-10" value="" style="edgeStyle=orthogonalEdgeStyle;rounded=0;orthogonalLoop=1;jettySize=auto;html=1;" edge="1" parent="WIyWlLk6GJQsqaUBKTNV-1" source="_Al638wbRoUYLRKJ5lqs-8" target="_Al638wbRoUYLRKJ5lqs-9">
          <mxGeometry relative="1" as="geometry" />
        </mxCell>
        <mxCell id="_Al638wbRoUYLRKJ5lqs-8" value="Start of Mobile App" style="rounded=1;whiteSpace=wrap;html=1;fontSize=12;glass=0;strokeWidth=1;shadow=0;" vertex="1" parent="WIyWlLk6GJQsqaUBKTNV-1">
          <mxGeometry x="500" y="10" width="120" height="40" as="geometry" />
        </mxCell>
        <mxCell id="_Al638wbRoUYLRKJ5lqs-12" value="" style="edgeStyle=orthogonalEdgeStyle;rounded=0;orthogonalLoop=1;jettySize=auto;html=1;" edge="1" parent="WIyWlLk6GJQsqaUBKTNV-1" source="_Al638wbRoUYLRKJ5lqs-9" target="_Al638wbRoUYLRKJ5lqs-11">
          <mxGeometry relative="1" as="geometry" />
        </mxCell>
        <mxCell id="_Al638wbRoUYLRKJ5lqs-9" value="User enter Cities" style="rounded=1;whiteSpace=wrap;html=1;fontSize=12;glass=0;strokeWidth=1;shadow=0;" vertex="1" parent="WIyWlLk6GJQsqaUBKTNV-1">
          <mxGeometry x="500" y="100" width="120" height="40" as="geometry" />
        </mxCell>
        <mxCell id="_Al638wbRoUYLRKJ5lqs-14" value="" style="edgeStyle=orthogonalEdgeStyle;rounded=0;orthogonalLoop=1;jettySize=auto;html=1;" edge="1" parent="WIyWlLk6GJQsqaUBKTNV-1" source="_Al638wbRoUYLRKJ5lqs-11" target="_Al638wbRoUYLRKJ5lqs-13">
          <mxGeometry relative="1" as="geometry" />
        </mxCell>
        <mxCell id="_Al638wbRoUYLRKJ5lqs-11" value="Pre-processing String of Cities" style="rounded=1;whiteSpace=wrap;html=1;fontSize=12;glass=0;strokeWidth=1;shadow=0;" vertex="1" parent="WIyWlLk6GJQsqaUBKTNV-1">
          <mxGeometry x="500" y="190" width="120" height="40" as="geometry" />
        </mxCell>
        <mxCell id="_Al638wbRoUYLRKJ5lqs-16" value="" style="edgeStyle=orthogonalEdgeStyle;rounded=0;orthogonalLoop=1;jettySize=auto;html=1;" edge="1" parent="WIyWlLk6GJQsqaUBKTNV-1" source="_Al638wbRoUYLRKJ5lqs-13" target="_Al638wbRoUYLRKJ5lqs-15">
          <mxGeometry relative="1" as="geometry" />
        </mxCell>
        <mxCell id="_Al638wbRoUYLRKJ5lqs-13" value="fetchDistances" style="rounded=1;whiteSpace=wrap;html=1;fontSize=12;glass=0;strokeWidth=1;shadow=0;" vertex="1" parent="WIyWlLk6GJQsqaUBKTNV-1">
          <mxGeometry x="500" y="280" width="120" height="40" as="geometry" />
        </mxCell>
        <mxCell id="_Al638wbRoUYLRKJ5lqs-18" value="" style="edgeStyle=orthogonalEdgeStyle;rounded=0;orthogonalLoop=1;jettySize=auto;html=1;" edge="1" parent="WIyWlLk6GJQsqaUBKTNV-1" source="_Al638wbRoUYLRKJ5lqs-15" target="_Al638wbRoUYLRKJ5lqs-17">
          <mxGeometry relative="1" as="geometry" />
        </mxCell>
        <mxCell id="_Al638wbRoUYLRKJ5lqs-15" value="Construction of Adjacency Matrix" style="rounded=1;whiteSpace=wrap;html=1;fontSize=12;glass=0;strokeWidth=1;shadow=0;" vertex="1" parent="WIyWlLk6GJQsqaUBKTNV-1">
          <mxGeometry x="500" y="370" width="120" height="40" as="geometry" />
        </mxCell>
        <mxCell id="_Al638wbRoUYLRKJ5lqs-29" value="" style="edgeStyle=orthogonalEdgeStyle;rounded=0;orthogonalLoop=1;jettySize=auto;html=1;" edge="1" parent="WIyWlLk6GJQsqaUBKTNV-1" source="_Al638wbRoUYLRKJ5lqs-17" target="_Al638wbRoUYLRKJ5lqs-27">
          <mxGeometry relative="1" as="geometry" />
        </mxCell>
        <mxCell id="_Al638wbRoUYLRKJ5lqs-17" value="Final resultant matrix" style="rounded=1;whiteSpace=wrap;html=1;fontSize=12;glass=0;strokeWidth=1;shadow=0;" vertex="1" parent="WIyWlLk6GJQsqaUBKTNV-1">
          <mxGeometry x="500" y="450" width="120" height="40" as="geometry" />
        </mxCell>
        <mxCell id="_Al638wbRoUYLRKJ5lqs-22" value="" style="edgeStyle=orthogonalEdgeStyle;rounded=0;orthogonalLoop=1;jettySize=auto;html=1;entryX=0;entryY=0.5;entryDx=0;entryDy=0;" edge="1" parent="WIyWlLk6GJQsqaUBKTNV-1" source="_Al638wbRoUYLRKJ5lqs-19" target="_Al638wbRoUYLRKJ5lqs-17">
          <mxGeometry relative="1" as="geometry">
            <mxPoint x="354" y="480" as="targetPoint" />
            <Array as="points">
              <mxPoint x="360" y="470" />
            </Array>
          </mxGeometry>
        </mxCell>
        <mxCell id="_Al638wbRoUYLRKJ5lqs-19" value="Randomize probability matrix" style="rounded=1;whiteSpace=wrap;html=1;fontSize=12;glass=0;strokeWidth=1;shadow=0;" vertex="1" parent="WIyWlLk6GJQsqaUBKTNV-1">
          <mxGeometry x="294" y="370" width="120" height="40" as="geometry" />
        </mxCell>
        <mxCell id="_Al638wbRoUYLRKJ5lqs-24" value="" style="edgeStyle=orthogonalEdgeStyle;rounded=0;orthogonalLoop=1;jettySize=auto;html=1;" edge="1" parent="WIyWlLk6GJQsqaUBKTNV-1" source="_Al638wbRoUYLRKJ5lqs-20" target="_Al638wbRoUYLRKJ5lqs-23">
          <mxGeometry relative="1" as="geometry">
            <Array as="points">
              <mxPoint x="770" y="470" />
              <mxPoint x="620" y="470" />
            </Array>
          </mxGeometry>
        </mxCell>
        <mxCell id="_Al638wbRoUYLRKJ5lqs-20" value="Average distance between all cities" style="rounded=1;whiteSpace=wrap;html=1;fontSize=12;glass=0;strokeWidth=1;shadow=0;" vertex="1" parent="WIyWlLk6GJQsqaUBKTNV-1">
          <mxGeometry x="707" y="370" width="120" height="40" as="geometry" />
        </mxCell>
        <mxCell id="_Al638wbRoUYLRKJ5lqs-23" value="" style="shape=waypoint;sketch=0;size=6;pointerEvents=1;points=[];fillColor=default;resizable=0;rotatable=0;perimeter=centerPerimeter;snapToPoint=1;rounded=1;glass=0;strokeWidth=1;shadow=0;" vertex="1" parent="WIyWlLk6GJQsqaUBKTNV-1">
          <mxGeometry x="610" y="460" width="20" height="20" as="geometry" />
        </mxCell>
        <mxCell id="_Al638wbRoUYLRKJ5lqs-37" value="" style="edgeStyle=orthogonalEdgeStyle;rounded=0;orthogonalLoop=1;jettySize=auto;html=1;" edge="1" parent="WIyWlLk6GJQsqaUBKTNV-1" source="_Al638wbRoUYLRKJ5lqs-26" target="_Al638wbRoUYLRKJ5lqs-36">
          <mxGeometry relative="1" as="geometry">
            <Array as="points">
              <mxPoint x="350" y="650" />
            </Array>
          </mxGeometry>
        </mxCell>
        <mxCell id="_Al638wbRoUYLRKJ5lqs-26" value="Dijkstra" style="rounded=1;whiteSpace=wrap;html=1;fontSize=12;glass=0;strokeWidth=1;shadow=0;" vertex="1" parent="WIyWlLk6GJQsqaUBKTNV-1">
          <mxGeometry x="294" y="540" width="120" height="40" as="geometry" />
        </mxCell>
        <mxCell id="_Al638wbRoUYLRKJ5lqs-38" value="" style="edgeStyle=orthogonalEdgeStyle;rounded=0;orthogonalLoop=1;jettySize=auto;html=1;" edge="1" parent="WIyWlLk6GJQsqaUBKTNV-1" source="_Al638wbRoUYLRKJ5lqs-27" target="_Al638wbRoUYLRKJ5lqs-35">
          <mxGeometry relative="1" as="geometry" />
        </mxCell>
        <mxCell id="_Al638wbRoUYLRKJ5lqs-27" value="Bellman-Ford" style="rounded=1;whiteSpace=wrap;html=1;fontSize=12;glass=0;strokeWidth=1;shadow=0;" vertex="1" parent="WIyWlLk6GJQsqaUBKTNV-1">
          <mxGeometry x="500" y="540" width="120" height="40" as="geometry" />
        </mxCell>
        <mxCell id="_Al638wbRoUYLRKJ5lqs-40" value="" style="edgeStyle=orthogonalEdgeStyle;rounded=0;orthogonalLoop=1;jettySize=auto;html=1;" edge="1" parent="WIyWlLk6GJQsqaUBKTNV-1" source="_Al638wbRoUYLRKJ5lqs-28" target="_Al638wbRoUYLRKJ5lqs-39">
          <mxGeometry relative="1" as="geometry">
            <Array as="points">
              <mxPoint x="767" y="650" />
            </Array>
          </mxGeometry>
        </mxCell>
        <mxCell id="_Al638wbRoUYLRKJ5lqs-28" value="Topo-sort" style="rounded=1;whiteSpace=wrap;html=1;fontSize=12;glass=0;strokeWidth=1;shadow=0;" vertex="1" parent="WIyWlLk6GJQsqaUBKTNV-1">
          <mxGeometry x="707" y="540" width="120" height="40" as="geometry" />
        </mxCell>
        <mxCell id="_Al638wbRoUYLRKJ5lqs-30" value="" style="shape=waypoint;sketch=0;size=6;pointerEvents=1;points=[];fillColor=default;resizable=0;rotatable=0;perimeter=centerPerimeter;snapToPoint=1;rounded=1;glass=0;strokeWidth=1;shadow=0;" vertex="1" parent="WIyWlLk6GJQsqaUBKTNV-1">
          <mxGeometry x="500" y="480" width="20" height="20" as="geometry" />
        </mxCell>
        <mxCell id="_Al638wbRoUYLRKJ5lqs-32" value="" style="edgeStyle=orthogonalEdgeStyle;rounded=0;orthogonalLoop=1;jettySize=auto;html=1;exitX=1.115;exitY=0.62;exitDx=0;exitDy=0;exitPerimeter=0;entryX=0.448;entryY=-0.069;entryDx=0;entryDy=0;entryPerimeter=0;" edge="1" parent="WIyWlLk6GJQsqaUBKTNV-1" source="_Al638wbRoUYLRKJ5lqs-30" target="_Al638wbRoUYLRKJ5lqs-26">
          <mxGeometry relative="1" as="geometry">
            <mxPoint x="570" y="500" as="sourcePoint" />
            <mxPoint x="570" y="550" as="targetPoint" />
            <Array as="points">
              <mxPoint x="510" y="500" />
              <mxPoint x="348" y="500" />
            </Array>
          </mxGeometry>
        </mxCell>
        <mxCell id="_Al638wbRoUYLRKJ5lqs-33" value="" style="edgeStyle=orthogonalEdgeStyle;rounded=0;orthogonalLoop=1;jettySize=auto;html=1;entryX=0.5;entryY=0;entryDx=0;entryDy=0;" edge="1" parent="WIyWlLk6GJQsqaUBKTNV-1" target="_Al638wbRoUYLRKJ5lqs-28">
          <mxGeometry relative="1" as="geometry">
            <mxPoint x="610" y="490" as="sourcePoint" />
            <mxPoint x="610" y="540" as="targetPoint" />
            <Array as="points">
              <mxPoint x="610" y="500" />
              <mxPoint x="767" y="500" />
            </Array>
          </mxGeometry>
        </mxCell>
        <mxCell id="_Al638wbRoUYLRKJ5lqs-42" value="" style="edgeStyle=orthogonalEdgeStyle;rounded=0;orthogonalLoop=1;jettySize=auto;html=1;" edge="1" parent="WIyWlLk6GJQsqaUBKTNV-1" source="_Al638wbRoUYLRKJ5lqs-35" target="_Al638wbRoUYLRKJ5lqs-41">
          <mxGeometry relative="1" as="geometry" />
        </mxCell>
        <mxCell id="_Al638wbRoUYLRKJ5lqs-35" value="Record time taken for pathFinding" style="rounded=1;whiteSpace=wrap;html=1;fontSize=12;glass=0;strokeWidth=1;shadow=0;" vertex="1" parent="WIyWlLk6GJQsqaUBKTNV-1">
          <mxGeometry x="500" y="630" width="120" height="40" as="geometry" />
        </mxCell>
        <mxCell id="_Al638wbRoUYLRKJ5lqs-36" value="" style="shape=waypoint;sketch=0;size=6;pointerEvents=1;points=[];fillColor=default;resizable=0;rotatable=0;perimeter=centerPerimeter;snapToPoint=1;rounded=1;glass=0;strokeWidth=1;shadow=0;" vertex="1" parent="WIyWlLk6GJQsqaUBKTNV-1">
          <mxGeometry x="490" y="640" width="20" height="20" as="geometry" />
        </mxCell>
        <mxCell id="_Al638wbRoUYLRKJ5lqs-39" value="" style="shape=waypoint;sketch=0;size=6;pointerEvents=1;points=[];fillColor=default;resizable=0;rotatable=0;perimeter=centerPerimeter;snapToPoint=1;rounded=1;glass=0;strokeWidth=1;shadow=0;" vertex="1" parent="WIyWlLk6GJQsqaUBKTNV-1">
          <mxGeometry x="610" y="640" width="20" height="20" as="geometry" />
        </mxCell>
        <mxCell id="_Al638wbRoUYLRKJ5lqs-44" value="" style="edgeStyle=orthogonalEdgeStyle;rounded=0;orthogonalLoop=1;jettySize=auto;html=1;" edge="1" parent="WIyWlLk6GJQsqaUBKTNV-1" source="_Al638wbRoUYLRKJ5lqs-41">
          <mxGeometry relative="1" as="geometry">
            <mxPoint x="560" y="340" as="targetPoint" />
            <Array as="points">
              <mxPoint x="890" y="770" />
              <mxPoint x="890" y="340" />
              <mxPoint x="560" y="340" />
            </Array>
          </mxGeometry>
        </mxCell>
        <mxCell id="_Al638wbRoUYLRKJ5lqs-46" value="" style="edgeStyle=orthogonalEdgeStyle;rounded=0;orthogonalLoop=1;jettySize=auto;html=1;" edge="1" parent="WIyWlLk6GJQsqaUBKTNV-1" source="_Al638wbRoUYLRKJ5lqs-41" target="_Al638wbRoUYLRKJ5lqs-45">
          <mxGeometry relative="1" as="geometry" />
        </mxCell>
        <mxCell id="_Al638wbRoUYLRKJ5lqs-41" value="Loop for n iterations?" style="rhombus;whiteSpace=wrap;html=1;rounded=1;glass=0;strokeWidth=1;shadow=0;" vertex="1" parent="WIyWlLk6GJQsqaUBKTNV-1">
          <mxGeometry x="520" y="730" width="80" height="80" as="geometry" />
        </mxCell>
        <mxCell id="_Al638wbRoUYLRKJ5lqs-48" value="" style="edgeStyle=orthogonalEdgeStyle;rounded=0;orthogonalLoop=1;jettySize=auto;html=1;" edge="1" parent="WIyWlLk6GJQsqaUBKTNV-1" source="_Al638wbRoUYLRKJ5lqs-45" target="_Al638wbRoUYLRKJ5lqs-47">
          <mxGeometry relative="1" as="geometry" />
        </mxCell>
        <mxCell id="_Al638wbRoUYLRKJ5lqs-45" value="Graphing" style="rounded=1;whiteSpace=wrap;html=1;fontSize=12;glass=0;strokeWidth=1;shadow=0;" vertex="1" parent="WIyWlLk6GJQsqaUBKTNV-1">
          <mxGeometry x="500" y="860" width="120" height="40" as="geometry" />
        </mxCell>
        <mxCell id="_Al638wbRoUYLRKJ5lqs-47" value="End" style="rounded=1;whiteSpace=wrap;html=1;fontSize=12;glass=0;strokeWidth=1;shadow=0;" vertex="1" parent="WIyWlLk6GJQsqaUBKTNV-1">
          <mxGeometry x="500" y="960" width="120" height="40" as="geometry" />
        </mxCell>
      </root>
    </mxGraphModel>
  </diagram>
</mxfile>
